# xmcd
#
# Track frame offsets:
#	150
#	18472
#	37152
#	54055
#	72435
#	90492
#	107527
#	121260
#	139172
#	156737
#	172420
#	188747
#	208545
#
# Disc length: 3114 seconds
#
# Revision: 1
# Processed by: cddbd v1.5.1PL0 Copyright (c) Steve Scherf et al.
# Submitted via: EasyCDDAExtractor 6.2.0.3
#
DISCID=b90c280d
DTITLE=Gipsi Kali -  Yo Vivirer
DYEAR=1900
DGENRE=
TTITLE0=Yo Viverer
TTITLE1=Baila Lucia
TTITLE2=Sarah
TTITLE3=Manuela
TTITLE4=Alabina
TTITLE5=Habibi Ya Kali
TTITLE6=Salama
TTITLE7=Ya Rayah
TTITLE8=Bibo
TTITLE9=Jesus Del Nazareth
TTITLE10=Hava Nagila
TTITLE11=Evenou Shalom
TTITLE12=Yo Viverer(version maxi club)
EXTD=
EXTT0=
EXTT1=
EXTT2=
EXTT3=
EXTT4=
EXTT5=
EXTT6=
EXTT7=
EXTT8=
EXTT9=
EXTT10=
EXTT11=
EXTT12=
PLAYORDER=
